<?xml version="1.0" encoding="UTF-8" standalone="no"?>
<!DOCTYPE svg PUBLIC "-//W3C//DTD SVG 1.1//EN" "http://www.w3.org/Graphics/SVG/1.1/DTD/svg11.dtd">
<svg width="100%" height="100%" viewBox="0 0 5531 1676" version="1.1" xmlns="http://www.w3.org/2000/svg" xmlns:xlink="http://www.w3.org/1999/xlink" xml:space="preserve" xmlns:serif="http://www.serif.com/" style="fill-rule:evenodd;clip-rule:evenodd;stroke-linejoin:round;stroke-miterlimit:2;">
    <g transform="matrix(1,0,0,1,0,-5468)">
        <g transform="matrix(1.00596,0,0,1.05864,-33671.8,-2408.86)">
            <rect id="Logotype-DBlue" x="33472.4" y="7440.57" width="5497.59" height="1582.64" style="fill:none;"/>
            <g id="Logotype-DBlue1" serif:id="Logotype-DBlue">
                <g transform="matrix(0.994077,0,0,0.94461,254.979,452.554)">
                    <g transform="matrix(2.71656,0,0,2.71656,-3621.37,-17458.3)">
                        <g transform="matrix(1,0,0,1,0,37.3792)">
                            <path d="M13832.1,9230.64C13843.9,9230.64 13854.2,9232.59 13863,9236.49C13871.8,9240.4 13878.6,9246.01 13883.3,9253.33C13888.1,9260.65 13890.5,9269.19 13890.5,9278.95C13890.5,9288.71 13888.1,9297.25 13883.3,9304.57C13878.6,9311.89 13871.8,9317.5 13863,9321.4C13854.2,9325.31 13843.9,9327.26 13832.1,9327.26L13813.6,9327.26L13813.6,9358.74L13770.4,9358.74L13770.4,9230.64L13832.1,9230.64ZM13829.3,9293.95C13835.2,9293.95 13839.6,9292.64 13842.5,9290.02C13845.4,9287.4 13846.9,9283.7 13846.9,9278.95C13846.9,9274.19 13845.4,9270.5 13842.5,9267.88C13839.6,9265.25 13835.2,9263.94 13829.3,9263.94L13813.6,9263.94L13813.6,9293.95L13829.3,9293.95Z" style="fill:rgb(9,34,58);fill-rule:nonzero;"/>
                        </g>
                        <g transform="matrix(1,0,0,1,0,37.3792)">
                            <path d="M13959.5,9326.53L13947.7,9326.53L13947.7,9358.74L13904.6,9358.74L13904.6,9230.64L13966.2,9230.64C13978.1,9230.64 13988.4,9232.59 13997.2,9236.49C14005.9,9240.4 14012.7,9246.01 14017.5,9253.33C14022.2,9260.65 14024.6,9269.19 14024.6,9278.95C14024.6,9288.1 14022.5,9296.09 14018.4,9302.92C14014.2,9309.75 14008.3,9315.18 14000.4,9319.21L14027.3,9358.74L13981.2,9358.74L13959.5,9326.53ZM13981.1,9278.95C13981.1,9274.19 13979.6,9270.5 13976.7,9267.88C13973.7,9265.25 13969.3,9263.94 13963.5,9263.94L13947.7,9263.94L13947.7,9293.95L13963.5,9293.95C13969.3,9293.95 13973.7,9292.64 13976.7,9290.02C13979.6,9287.4 13981.1,9283.7 13981.1,9278.95Z" style="fill:rgb(9,34,58);fill-rule:nonzero;"/>
                        </g>
                        <g transform="matrix(1,0,0,1,0,37.3792)">
                            <path d="M14108.1,9361.66C14094.3,9361.66 14081.9,9358.8 14070.9,9353.06C14059.9,9347.33 14051.3,9339.37 14045.1,9329.18C14038.9,9318.99 14035.8,9307.5 14035.8,9294.68C14035.8,9281.88 14038.9,9270.38 14045.1,9260.19C14051.3,9250 14059.9,9242.04 14070.9,9236.31C14081.9,9230.57 14094.3,9227.71 14108.1,9227.71C14121.8,9227.71 14134.2,9230.57 14145.2,9236.31C14156.2,9242.04 14164.8,9250 14171,9260.19C14177.2,9270.38 14180.3,9281.88 14180.3,9294.68C14180.3,9307.5 14177.2,9318.99 14171,9329.18C14164.8,9339.37 14156.2,9347.33 14145.2,9353.06C14134.2,9358.8 14121.8,9361.66 14108.1,9361.66ZM14108.1,9326.71C14113.4,9326.71 14118.3,9325.4 14122.6,9322.78C14126.9,9320.15 14130.4,9316.43 14132.9,9311.61C14135.5,9306.79 14136.8,9301.15 14136.8,9294.68C14136.8,9288.22 14135.5,9282.58 14132.9,9277.76C14130.4,9272.94 14126.9,9269.22 14122.6,9266.59C14118.3,9263.97 14113.4,9262.66 14108.1,9262.66C14102.7,9262.66 14097.8,9263.97 14093.5,9266.59C14089.2,9269.22 14085.7,9272.94 14083.2,9277.76C14080.6,9282.58 14079.3,9288.22 14079.3,9294.68C14079.3,9301.15 14080.6,9306.79 14083.2,9311.61C14085.7,9316.43 14089.2,9320.15 14093.5,9322.78C14097.8,9325.4 14102.7,9326.71 14108.1,9326.71Z" style="fill:rgb(9,34,58);fill-rule:nonzero;"/>
                        </g>
                        <g transform="matrix(1,0,0,1,0,37.3792)">
                            <path d="M14280.8,9291.21L14318.3,9291.21L14318.3,9345.38C14310.8,9350.62 14302,9354.65 14292,9357.45C14282,9360.26 14272.1,9361.66 14262.5,9361.66C14248.8,9361.66 14236.6,9358.83 14225.7,9353.15C14214.9,9347.48 14206.4,9339.55 14200.2,9329.36C14194,9319.18 14191,9307.62 14191,9294.68C14191,9281.75 14194,9270.19 14200.2,9260.01C14206.4,9249.82 14215,9241.89 14226,9236.22C14237,9230.54 14249.5,9227.71 14263.4,9227.71C14276,9227.71 14287.2,9229.81 14297.2,9234.02C14307.1,9238.23 14315.4,9244.36 14322,9252.41L14294.3,9276.75C14286.3,9267.36 14276.7,9262.66 14265.6,9262.66C14256.1,9262.66 14248.5,9265.53 14242.9,9271.26C14237.3,9277 14234.5,9284.8 14234.5,9294.68C14234.5,9304.32 14237.3,9312.07 14242.8,9317.93C14248.4,9323.78 14255.8,9326.71 14265.1,9326.71C14270.6,9326.71 14275.8,9325.67 14280.8,9323.6L14280.8,9291.21Z" style="fill:rgb(9,34,58);fill-rule:nonzero;"/>
                        </g>
                        <g transform="matrix(1,0,0,1,0,37.3792)">
                            <path d="M14391.7,9326.53L14380,9326.53L14380,9358.74L14336.8,9358.74L14336.8,9230.64L14398.5,9230.64C14410.3,9230.64 14420.6,9232.59 14429.4,9236.49C14438.2,9240.4 14445,9246.01 14449.7,9253.33C14454.5,9260.65 14456.9,9269.19 14456.9,9278.95C14456.9,9288.1 14454.8,9296.09 14450.6,9302.92C14446.5,9309.75 14440.5,9315.18 14432.7,9319.21L14459.6,9358.74L14413.5,9358.74L14391.7,9326.53ZM14413.3,9278.95C14413.3,9274.19 14411.8,9270.5 14408.9,9267.88C14406,9265.25 14401.6,9263.94 14395.7,9263.94L14380,9263.94L14380,9293.95L14395.7,9293.95C14401.6,9293.95 14406,9292.64 14408.9,9290.02C14411.8,9287.4 14413.3,9283.7 14413.3,9278.95Z" style="fill:rgb(9,34,58);fill-rule:nonzero;"/>
                        </g>
                        <g transform="matrix(1,0,0,1,0,37.3792)">
                            <path d="M14579.6,9326.16L14579.6,9358.74L14473.1,9358.74L14473.1,9230.64L14577.3,9230.64L14577.3,9263.21L14515.6,9263.21L14515.6,9278.22L14569.8,9278.22L14569.8,9309.33L14515.6,9309.33L14515.6,9326.16L14579.6,9326.16Z" style="fill:rgb(9,34,58);fill-rule:nonzero;"/>
                        </g>
                        <g transform="matrix(1,0,0,1,0,37.3792)">
                            <path d="M14644.1,9361.66C14633.4,9361.66 14623.1,9360.47 14613,9358.09C14603,9355.72 14594.7,9352.51 14588.2,9348.49L14602.2,9317.01C14608.3,9320.55 14615.1,9323.39 14622.6,9325.52C14630.2,9327.66 14637.5,9328.72 14644.4,9328.72C14650.4,9328.72 14654.7,9328.14 14657.2,9326.99C14659.8,9325.83 14661.1,9324.09 14661.1,9321.77C14661.1,9319.09 14659.4,9317.07 14656,9315.73C14652.7,9314.39 14647.2,9312.92 14639.5,9311.34C14629.6,9309.26 14621.4,9307.04 14614.8,9304.66C14608.2,9302.28 14602.5,9298.38 14597.6,9292.95C14592.7,9287.52 14590.3,9280.17 14590.3,9270.9C14590.3,9262.84 14592.5,9255.52 14597,9248.93C14601.5,9242.35 14608.3,9237.16 14617.2,9233.38C14626.2,9229.6 14637.1,9227.71 14649.9,9227.71C14658.7,9227.71 14667.3,9228.65 14675.8,9230.54C14684.3,9232.43 14691.8,9235.21 14698.2,9238.87L14685.2,9270.16C14672.7,9263.82 14660.8,9260.65 14649.5,9260.65C14638.4,9260.65 14632.9,9263.33 14632.9,9268.7C14632.9,9271.26 14634.5,9273.18 14637.8,9274.46C14641.1,9275.75 14646.6,9277.12 14654.1,9278.58C14663.9,9280.41 14672.1,9282.52 14678.8,9284.9C14685.5,9287.27 14691.4,9291.15 14696.3,9296.51C14701.2,9301.88 14703.7,9309.2 14703.7,9318.48C14703.7,9326.53 14701.5,9333.82 14696.9,9340.34C14692.4,9346.87 14685.7,9352.06 14676.7,9355.9C14667.8,9359.74 14656.9,9361.66 14644.1,9361.66Z" style="fill:rgb(9,34,58);fill-rule:nonzero;"/>
                        </g>
                        <g transform="matrix(1,0,0,1,0,37.3792)">
                            <path d="M14764.3,9361.66C14753.7,9361.66 14743.3,9360.47 14733.3,9358.09C14723.2,9355.72 14714.9,9352.51 14708.5,9348.49L14722.4,9317.01C14728.5,9320.55 14735.3,9323.39 14742.9,9325.52C14750.4,9327.66 14757.7,9328.72 14764.7,9328.72C14770.6,9328.72 14774.9,9328.14 14777.5,9326.99C14780,9325.83 14781.3,9324.09 14781.3,9321.77C14781.3,9319.09 14779.6,9317.07 14776.3,9315.73C14772.9,9314.39 14767.4,9312.92 14759.7,9311.34C14749.8,9309.26 14741.6,9307.04 14735,9304.66C14728.4,9302.28 14722.7,9298.38 14717.8,9292.95C14712.9,9287.52 14710.5,9280.17 14710.5,9270.9C14710.5,9262.84 14712.7,9255.52 14717.3,9248.93C14721.8,9242.35 14728.5,9237.16 14737.5,9233.38C14746.4,9229.6 14757.3,9227.71 14770.1,9227.71C14778.9,9227.71 14787.6,9228.65 14796,9230.54C14804.5,9232.43 14812,9235.21 14818.5,9238.87L14805.5,9270.16C14792.9,9263.82 14781,9260.65 14769.8,9260.65C14758.7,9260.65 14753.1,9263.33 14753.1,9268.7C14753.1,9271.26 14754.8,9273.18 14758.1,9274.46C14761.4,9275.75 14766.8,9277.12 14774.4,9278.58C14784.1,9280.41 14792.4,9282.52 14799.1,9284.9C14805.8,9287.27 14811.6,9291.15 14816.5,9296.51C14821.5,9301.88 14823.9,9309.2 14823.9,9318.48C14823.9,9326.53 14821.7,9333.82 14817.2,9340.34C14812.7,9346.87 14805.9,9352.06 14797,9355.9C14788,9359.74 14777.1,9361.66 14764.3,9361.66Z" style="fill:rgb(9,34,58);fill-rule:nonzero;"/>
                        </g>
                        <g transform="matrix(1,0,0,1,0,37.3792)">
                            <rect x="14836.8" y="9230.64" width="43.188" height="128.1" style="fill:rgb(9,34,58);fill-rule:nonzero;"/>
                        </g>
                        <g transform="matrix(1,0,0,1,0,37.3792)">
                            <path d="M15037.7,9230.64L14983.5,9358.74L14941.1,9358.74L14886.9,9230.64L14933.4,9230.64L14963.9,9305.48L14995.2,9230.64L15037.7,9230.64Z" style="fill:rgb(9,34,58);fill-rule:nonzero;"/>
                        </g>
                        <g transform="matrix(1,0,0,1,0,37.3792)">
                            <path d="M15148.4,9326.16L15148.4,9358.74L15041.9,9358.74L15041.9,9230.64L15146,9230.64L15146,9263.21L15084.4,9263.21L15084.4,9278.22L15138.5,9278.22L15138.5,9309.33L15084.4,9309.33L15084.4,9326.16L15148.4,9326.16Z" style="fill:rgb(9,34,58);fill-rule:nonzero;"/>
                        </g>
                        <g transform="matrix(0.988598,0,0,0.988598,172.729,110.042)">
                            <path d="M13991.8,9445.14L13906.6,9646.74L13839.8,9646.74L13754.5,9445.14L13827.7,9445.14L13875.8,9562.93L13925,9445.14L13991.8,9445.14Z" style="fill:rgb(9,34,58);fill-rule:nonzero;"/>
                        </g>
                        <g transform="matrix(0.988598,0,0,0.988598,172.729,110.042)">
                            <rect x="13998.5" y="9445.14" width="67.968" height="201.6" style="fill:rgb(9,34,58);fill-rule:nonzero;"/>
                        </g>
                        <g transform="matrix(0.988598,0,0,0.988598,172.729,110.042)">
                            <path d="M14203.5,9651.34C14182.2,9651.34 14163,9646.88 14145.9,9637.95C14128.8,9629.02 14115.4,9616.54 14105.7,9600.51C14096,9584.48 14091.2,9566.29 14091.2,9545.93C14091.2,9525.58 14096,9507.39 14105.7,9491.36C14115.4,9475.33 14128.8,9462.85 14145.9,9453.92C14163,9444.99 14182.2,9440.53 14203.5,9440.53C14223.1,9440.53 14240.6,9443.98 14255.9,9450.9C14271.3,9457.81 14284,9467.79 14293.9,9480.85L14251,9519.15C14238.5,9503.41 14223.9,9495.53 14207,9495.53C14192.8,9495.53 14181.3,9500.09 14172.7,9509.22C14164.1,9518.34 14159.7,9530.58 14159.7,9545.93C14159.7,9561.3 14164.1,9573.53 14172.7,9582.66C14181.3,9591.77 14192.8,9596.34 14207,9596.34C14223.9,9596.34 14238.5,9588.46 14251,9572.72L14293.9,9611.02C14284,9624.08 14271.3,9634.06 14255.9,9640.98C14240.6,9647.89 14223.1,9651.34 14203.5,9651.34Z" style="fill:rgb(9,34,58);fill-rule:nonzero;"/>
                        </g>
                        <g transform="matrix(0.988598,0,0,0.988598,172.729,110.042)">
                            <path d="M14355.9,9497.84L14296.8,9497.84L14296.8,9445.14L14482.9,9445.14L14482.9,9497.84L14423.8,9497.84L14423.8,9646.74L14355.9,9646.74L14355.9,9497.84Z" style="fill:rgb(9,34,58);fill-rule:nonzero;"/>
                        </g>
                        <g transform="matrix(0.988598,0,0,0.988598,172.729,110.042)">
                            <path d="M14603.2,9651.34C14581.6,9651.34 14562.1,9646.83 14544.8,9637.81C14527.5,9628.78 14514,9616.26 14504.2,9600.22C14494.4,9584.19 14489.5,9566.09 14489.5,9545.93C14489.5,9525.77 14494.4,9507.68 14504.2,9491.65C14514,9475.61 14527.5,9463.09 14544.8,9454.06C14562.1,9445.04 14581.6,9440.53 14603.2,9440.53C14624.9,9440.53 14644.4,9445.04 14661.7,9454.06C14679,9463.09 14692.5,9475.61 14702.3,9491.65C14712.1,9507.68 14717,9525.77 14717,9545.93C14717,9566.09 14712.1,9584.19 14702.3,9600.22C14692.5,9616.26 14679,9628.78 14661.7,9637.81C14644.4,9646.83 14624.9,9651.34 14603.2,9651.34ZM14603.2,9596.34C14611.7,9596.34 14619.3,9594.27 14626.1,9590.14C14633,9586.01 14638.4,9580.16 14642.4,9572.58C14646.5,9564.99 14648.5,9556.11 14648.5,9545.93C14648.5,9535.76 14646.5,9526.88 14642.4,9519.3C14638.4,9511.71 14633,9505.85 14626.1,9501.73C14619.3,9497.6 14611.7,9495.53 14603.2,9495.53C14594.8,9495.53 14587.2,9497.6 14580.4,9501.73C14573.5,9505.85 14568.1,9511.71 14564.1,9519.3C14560.1,9526.88 14558,9535.76 14558,9545.93C14558,9556.11 14560.1,9564.99 14564.1,9572.58C14568.1,9580.16 14573.5,9586.01 14580.4,9590.14C14587.2,9594.27 14594.8,9596.34 14603.2,9596.34Z" style="fill:rgb(9,34,58);fill-rule:nonzero;"/>
                        </g>
                        <g transform="matrix(0.988598,0,0,0.988598,172.729,110.042)">
                            <path d="M14828.2,9596.05L14809.7,9596.05L14809.7,9646.74L14741.8,9646.74L14741.8,9445.14L14838.8,9445.14C14857.5,9445.14 14873.7,9448.21 14887.5,9454.35C14901.3,9460.5 14912,9469.33 14919.5,9480.85C14927,9492.37 14930.7,9505.81 14930.7,9521.17C14930.7,9535.57 14927.4,9548.14 14920.9,9558.9C14914.4,9569.65 14905,9578.19 14892.7,9584.53L14935,9646.74L14862.5,9646.74L14828.2,9596.05ZM14862.2,9521.17C14862.2,9513.68 14859.9,9507.87 14855.2,9503.74C14850.6,9499.61 14843.7,9497.55 14834.5,9497.55L14809.7,9497.55L14809.7,9544.78L14834.5,9544.78C14843.7,9544.78 14850.6,9542.72 14855.2,9538.59C14859.9,9534.46 14862.2,9528.66 14862.2,9521.17Z" style="fill:rgb(9,34,58);fill-rule:nonzero;"/>
                        </g>
                        <g transform="matrix(0.988598,0,0,0.988598,172.729,110.042)">
                            <path d="M15073.3,9573.58L15073.3,9646.74L15005.3,9646.74L15005.3,9572.72L14929.3,9445.14L15001,9445.14L15042.2,9514.83L15083.6,9445.14L15149.3,9445.14L15073.3,9573.58Z" style="fill:rgb(9,34,58);fill-rule:nonzero;"/>
                        </g>
                    </g>
                    <g transform="matrix(0.416532,0,0,0.416534,37740.6,7718.8)">
                        <path d="M1912.69,1411.9C1912.55,1412.24 1912.41,1412.57 1912.26,1412.88C1852.93,1543.45 1766.33,1659.05 1659.74,1752.4C1628.4,1779.87 1588.55,1795.69 1546.9,1797.19C1539.14,1797.45 1531.33,1797.25 1523.51,1796.57L1523.5,1796.57C1471.12,1792.03 1425.43,1767.02 1393.63,1730.09C1354.75,1760.94 1304.45,1777.56 1251.09,1772.92C1197.88,1768.3 1148.68,1742.74 1114.33,1701.84C1104.55,1690.2 1096.19,1677.59 1089.36,1664.28C1089.36,1664.28 939.282,1718.9 876.203,1741.86C861.067,1747.37 844.33,1739.56 838.821,1724.43C838.544,1723.67 838.266,1722.9 837.989,1722.14C835.344,1714.87 835.694,1706.85 838.963,1699.84C842.232,1692.83 848.152,1687.41 855.421,1684.76C931.906,1656.92 1142.1,1580.42 1142.1,1580.42C1203.37,1558.12 1234.96,1490.38 1212.66,1429.11L1212.65,1429.1C1190.36,1367.84 1122.61,1336.25 1061.35,1358.55L711.543,1485.86C645.128,1510.04 591.035,1559.6 561.166,1623.66C531.296,1687.72 528.096,1761.01 552.269,1827.43L797.065,2500L0,2500L0,-0L1000.67,-0L1001,0.002C1073.58,0.025 1144.37,7.793 1212.57,22.521L1213.23,22.664L1213.16,22.521C1663.49,119.827 2001.32,520.772 2001.32,1000C2001.32,1146.81 1969.62,1286.28 1912.69,1411.9ZM615.81,1467.63L265.688,718.048C230.995,643.771 263.083,555.433 337.36,520.74C411.636,486.046 499.974,518.134 534.668,592.411L854.912,1278.03L929.685,416.737C936.775,335.066 1008.73,274.607 1090.4,281.697L1090.4,281.698C1172.08,288.788 1232.54,360.745 1225.45,442.417L1168.15,1102.45C1174.86,1025.08 1243.03,967.801 1320.41,974.519C1357.56,977.744 1391.92,995.598 1415.91,1024.15C1439.9,1052.71 1451.57,1089.62 1448.34,1126.78L1442.42,1195C1445.46,1159.98 1462.28,1127.61 1489.19,1105C1516.1,1082.39 1550.89,1071.4 1585.9,1074.44L1585.91,1074.44C1659.14,1080.8 1713.36,1145.32 1707,1218.56L1672.56,1615.21C1669.52,1650.3 1652.65,1682.75 1625.69,1705.4C1598.72,1728.07 1563.85,1739.08 1528.76,1736.04C1455.68,1729.69 1401.59,1665.31 1407.93,1592.24L1408.61,1584.45C1401.89,1661.83 1333.72,1719.11 1256.35,1712.39C1219.19,1709.16 1184.84,1691.31 1160.85,1662.75C1155.69,1656.62 1151.1,1650.09 1147.11,1643.26L1162.88,1637.52C1255.68,1603.74 1303.53,1501.13 1269.76,1408.33L1269.75,1408.32C1235.98,1315.52 1133.36,1267.67 1040.56,1301.45L690.761,1428.76C663.968,1438.52 638.809,1451.63 615.81,1467.63Z" style="fill:rgb(9,34,58);"/>
                    </g>
                </g>
            </g>
        </g>
    </g>
</svg>
